ffmpeg started on 2025-07-06 at 18:08:40
Report written to "D:\Convert\FFMetrics\reports\ssim_report-6.txt"
Log level: 32
Command line:
ffmpeg -hide_banner -nostdin -i "G:\\\xc0\xed\xe8\xec\xe5\\\xce\xed\xe3\xee\xe8\xed\xe3\xe8\\!_37_\xc7\xe8\xec\xe0_2025\\JamClub\\\xc3\xee\xeb\xf3\xe1\xe0\xff \xf8\xea\xe0\xf2\xf3\xeb\xea\xe0\\JamClub_Ao_no_Hako_18_1080p_HEVC.mkv" -i "G:\\\xc0\xed\xe8\xec\xe5\\\xce\xed\xe3\xee\xe8\xed\xe3\xe8\\!_37_\xc7\xe8\xec\xe0_2025\\JamClub\\\xc3\xee\xeb\xf3\xe1\xe0\xff \xf8\xea\xe0\xf2\xf3\xeb\xea\xe0\\JamClub_Ao_no_Hako_18_1080p.mp4" -lavfi "[0:v]settb=AVTB,setpts=PTS-STARTPTS,format=pix_fmts=yuv420p10,fps=24000/1001,scale=1920:1080:flags=bicubic[main];[1:v]settb=AVTB,setpts=PTS-STARTPTS,format=pix_fmts=yuv420p,fps=24000/1001,scale=1920:1080:flags=bicubic[ref];[main][ref]ssim=eof_action=endall:stats_file='D\\:/Convert/FFMetrics/logs/ssim_logfile-6.txt'" -f null -
Input #0, matroska,webm, from 'G:\Аниме\Онгоинги\!_37_Зима_2025\JamClub\Голубая шкатулка\JamClub_Ao_no_Hako_18_1080p_HEVC.mkv':
  Metadata:
    COMPATIBLE_BRANDS: isomiso2avc1mp41
    MAJOR_BRAND     : isom
    MINOR_VERSION   : 512
    ENCODER         : Lavf61.7.100
  Duration: 00:23:59.25, start: -0.001000, bitrate: 1246 kb/s
  Stream #0:0: Video: hevc (Main 10), yuv420p10le(tv, bt709, progressive), 1920x1080 [SAR 1:1 DAR 16:9], 23.98 fps, 23.98 tbr, 1k tbn (default)
      Metadata:
        HANDLER_NAME    : VideoHandler
        VENDOR_ID       : [0][0][0][0]
        ENCODER         : Lavc61.19.100 libx265
        BPS             : 1049255
        DURATION        : 00:23:59.187708333
        NUMBER_OF_FRAMES: 34506
        NUMBER_OF_BYTES : 188759382
        _STATISTICS_WRITING_APP: mkvpropedit v66.0.0 ('Josie') 64-bit
        _STATISTICS_WRITING_DATE_UTC: 2025-07-06 10:15:47
        _STATISTICS_TAGS: BPS DURATION NUMBER_OF_FRAMES NUMBER_OF_BYTES
  Stream #0:1(eng): Audio: aac (LC), 48000 Hz, stereo, fltp (default)
      Metadata:
        HANDLER_NAME    : SoundHandler
        VENDOR_ID       : [0][0][0][0]
        ENCODER         : Lavc61.19.100 aac
        BPS             : 193343
        DURATION        : 00:23:59.213000000
        NUMBER_OF_FRAMES: 67464
        NUMBER_OF_BYTES : 34782888
        _STATISTICS_WRITING_APP: mkvpropedit v66.0.0 ('Josie') 64-bit
        _STATISTICS_WRITING_DATE_UTC: 2025-07-06 10:15:47
        _STATISTICS_TAGS: BPS DURATION NUMBER_OF_FRAMES NUMBER_OF_BYTES
Input #1, mov,mp4,m4a,3gp,3g2,mj2, from 'G:\Аниме\Онгоинги\!_37_Зима_2025\JamClub\Голубая шкатулка\JamClub_Ao_no_Hako_18_1080p.mp4':
  Metadata:
    major_brand     : isom
    minor_version   : 512
    compatible_brands: isomiso2avc1mp41
    encoder         : Lavf60.16.100
  Duration: 00:23:59.23, start: 0.000000, bitrate: 4725 kb/s
  Stream #1:0[0x1](und): Video: h264 (High) (avc1 / 0x31637661), yuv420p(progressive), 1920x1080 [SAR 1:1 DAR 16:9], 4527 kb/s, 23.98 fps, 23.98 tbr, 90k tbn (default)
      Metadata:
        handler_name    : VideoHandler
        vendor_id       : [0][0][0][0]
  Stream #1:1[0x2](eng): Audio: aac (LC) (mp4a / 0x6134706D), 48000 Hz, stereo, fltp, 191 kb/s (default)
      Metadata:
        handler_name    : SoundHandler
        vendor_id       : [0][0][0][0]
Stream mapping:
  Stream #0:0 (hevc) -> settb:default
  Stream #1:0 (h264) -> settb:default
  ssim:default -> Stream #0:0 (wrapped_avframe)
  Stream #0:1 -> #0:1 (aac (native) -> pcm_s16le (native))
Output #0, null, to 'pipe:':
  Metadata:
    COMPATIBLE_BRANDS: isomiso2avc1mp41
    MAJOR_BRAND     : isom
    MINOR_VERSION   : 512
    encoder         : Lavf61.7.100
  Stream #0:0: Video: wrapped_avframe, yuv420p10le(tv, bt709, progressive), 1920x1080 [SAR 1:1 DAR 16:9], q=2-31, 200 kb/s, 23.98 fps, 23.98 tbn
      Metadata:
        encoder         : Lavc61.19.100 wrapped_avframe
  Stream #0:1(eng): Audio: pcm_s16le, 48000 Hz, stereo, s16, 1536 kb/s (default)
      Metadata:
        HANDLER_NAME    : SoundHandler
        VENDOR_ID       : [0][0][0][0]
        _STATISTICS_TAGS: BPS DURATION NUMBER_OF_FRAMES NUMBER_OF_BYTES
        BPS             : 193343
        DURATION        : 00:23:59.213000000
        NUMBER_OF_FRAMES: 67464
        NUMBER_OF_BYTES : 34782888
        _STATISTICS_WRITING_APP: mkvpropedit v66.0.0 ('Josie') 64-bit
        _STATISTICS_WRITING_DATE_UTC: 2025-07-06 10:15:47
        encoder         : Lavc61.19.100 pcm_s16le
frame=  105 fps=0.0 q=-0.0 size=N/A time=00:00:04.37 bitrate=N/A speed=8.66x    frame=  266 fps=258 q=-0.0 size=N/A time=00:00:11.09 bitrate=N/A speed=10.7x    frame=  452 fps=293 q=-0.0 size=N/A time=00:00:18.85 bitrate=N/A speed=12.2x    frame=  684 fps=333 q=-0.0 size=N/A time=00:00:28.52 bitrate=N/A speed=13.9x    frame=  948 fps=369 q=-0.0 size=N/A time=00:00:39.53 bitrate=N/A speed=15.4x    frame= 1217 fps=393 q=-0.0 size=N/A time=00:00:50.75 bitrate=N/A speed=16.4x    frame= 1465 fps=406 q=-0.0 size=N/A time=00:01:01.10 bitrate=N/A speed=16.9x    frame= 1743 fps=423 q=-0.0 size=N/A time=00:01:12.69 bitrate=N/A speed=17.7x    frame= 2012 fps=433 q=-0.0 size=N/A time=00:01:23.91 bitrate=N/A speed=18.1x    frame= 2279 fps=442 q=-0.0 size=N/A time=00:01:35.05 bitrate=N/A speed=18.4x    frame= 2529 fps=446 q=-0.0 size=N/A time=00:01:45.48 bitrate=N/A speed=18.6x    frame= 2759 fps=447 q=-0.0 size=N/A time=00:01:55.07 bitrate=N/A speed=18.6x    frame= 2984 fps=445 q=-0.0 size=N/A time=00:02:04.45 bitrate=N/A speed=18.6x    frame= 3207 fps=444 q=-0.0 size=N/A time=00:02:13.75 bitrate=N/A speed=18.5x    frame= 3422 fps=443 q=-0.0 size=N/A time=00:02:22.72 bitrate=N/A speed=18.5x    frame= 3653 fps=443 q=-0.0 size=N/A time=00:02:32.36 bitrate=N/A speed=18.5x    frame= 3841 fps=438 q=-0.0 size=N/A time=00:02:40.20 bitrate=N/A speed=18.3x    frame= 4074 fps=439 q=-0.0 size=N/A time=00:02:49.91 bitrate=N/A speed=18.3x    frame= 4319 fps=441 q=-0.0 size=N/A time=00:03:00.13 bitrate=N/A speed=18.4x    frame= 4539 fps=441 q=-0.0 size=N/A time=00:03:09.31 bitrate=N/A speed=18.4x    frame= 4758 fps=439 q=-0.0 size=N/A time=00:03:18.44 bitrate=N/A speed=18.3x    frame= 4993 fps=440 q=-0.0 size=N/A time=00:03:28.24 bitrate=N/A speed=18.4x    frame= 5196 fps=438 q=-0.0 size=N/A time=00:03:36.71 bitrate=N/A speed=18.3x    frame= 5439 fps=439 q=-0.0 size=N/A time=00:03:46.85 bitrate=N/A speed=18.3x    frame= 5703 fps=442 q=-0.0 size=N/A time=00:03:57.86 bitrate=N/A speed=18.5x    frame= 5924 fps=442 q=-0.0 size=N/A time=00:04:07.08 bitrate=N/A speed=18.4x    frame= 6163 fps=443 q=-0.0 size=N/A time=00:04:17.04 bitrate=N/A speed=18.5x    frame= 6414 fps=444 q=-0.0 size=N/A time=00:04:27.51 bitrate=N/A speed=18.5x    frame= 6671 fps=446 q=-0.0 size=N/A time=00:04:38.23 bitrate=N/A speed=18.6x    frame= 6937 fps=449 q=-0.0 size=N/A time=00:04:49.33 bitrate=N/A speed=18.7x    frame= 7185 fps=450 q=-0.0 size=N/A time=00:04:59.67 bitrate=N/A speed=18.8x    frame= 7390 fps=448 q=-0.0 size=N/A time=00:05:08.22 bitrate=N/A speed=18.7x    frame= 7633 fps=449 q=-0.0 size=N/A time=00:05:18.35 bitrate=N/A speed=18.7x    frame= 7864 fps=449 q=-0.0 size=N/A time=00:05:27.99 bitrate=N/A speed=18.7x    frame= 8122 fps=450 q=-0.0 size=N/A time=00:05:38.75 bitrate=N/A speed=18.8x    frame= 8389 fps=452 q=-0.0 size=N/A time=00:05:49.89 bitrate=N/A speed=18.8x    frame= 8645 fps=453 q=-0.0 size=N/A time=00:06:00.56 bitrate=N/A speed=18.9x    frame= 8903 fps=455 q=-0.0 size=N/A time=00:06:11.32 bitrate=N/A speed=  19x    frame= 9106 fps=453 q=-0.0 size=N/A time=00:06:19.79 bitrate=N/A speed=18.9x    frame= 9345 fps=453 q=-0.0 size=N/A time=00:06:29.76 bitrate=N/A speed=18.9x    frame= 9583 fps=453 q=-0.0 size=N/A time=00:06:39.69 bitrate=N/A speed=18.9x    frame= 9824 fps=454 q=-0.0 size=N/A time=00:06:49.74 bitrate=N/A speed=18.9x    frame=10081 fps=455 q=-0.0 size=N/A time=00:07:00.46 bitrate=N/A speed=  19x    frame=10351 fps=456 q=-0.0 size=N/A time=00:07:11.72 bitrate=N/A speed=  19x    frame=10578 fps=456 q=-0.0 size=N/A time=00:07:21.19 bitrate=N/A speed=  19x    frame=10826 fps=457 q=-0.0 size=N/A time=00:07:31.53 bitrate=N/A speed=  19x    frame=11089 fps=458 q=-0.0 size=N/A time=00:07:42.50 bitrate=N/A speed=19.1x    frame=11302 fps=457 q=-0.0 size=N/A time=00:07:51.38 bitrate=N/A speed=  19x    frame=11539 fps=457 q=-0.0 size=N/A time=00:08:01.27 bitrate=N/A speed=19.1x    frame=11796 fps=458 q=-0.0 size=N/A time=00:08:11.99 bitrate=N/A speed=19.1x    frame=12017 fps=457 q=-0.0 size=N/A time=00:08:21.20 bitrate=N/A speed=19.1x    frame=12235 fps=456 q=-0.0 size=N/A time=00:08:30.30 bitrate=N/A speed=  19x    frame=12465 fps=456 q=-0.0 size=N/A time=00:08:39.89 bitrate=N/A speed=  19x    frame=12694 fps=456 q=-0.0 size=N/A time=00:08:49.44 bitrate=N/A speed=  19x    frame=12928 fps=456 q=-0.0 size=N/A time=00:08:59.20 bitrate=N/A speed=  19x    frame=13159 fps=456 q=-0.0 size=N/A time=00:09:08.83 bitrate=N/A speed=  19x    frame=13419 fps=457 q=-0.0 size=N/A time=00:09:19.68 bitrate=N/A speed=  19x    frame=13631 fps=456 q=-0.0 size=N/A time=00:09:28.52 bitrate=N/A speed=  19x    frame=13870 fps=456 q=-0.0 size=N/A time=00:09:38.49 bitrate=N/A speed=  19x    frame=14101 fps=456 q=-0.0 size=N/A time=00:09:48.12 bitrate=N/A speed=  19x    frame=14298 fps=455 q=-0.0 size=N/A time=00:09:56.34 bitrate=N/A speed=  19x    frame=14539 fps=455 q=-0.0 size=N/A time=00:10:06.39 bitrate=N/A speed=  19x    frame=14748 fps=454 q=-0.0 size=N/A time=00:10:15.11 bitrate=N/A speed=18.9x    frame=15000 fps=455 q=-0.0 size=N/A time=00:10:25.62 bitrate=N/A speed=  19x    frame=15237 fps=455 q=-0.0 size=N/A time=00:10:35.50 bitrate=N/A speed=  19x    frame=15476 fps=455 q=-0.0 size=N/A time=00:10:45.47 bitrate=N/A speed=  19x    frame=15725 fps=455 q=-0.0 size=N/A time=00:10:55.86 bitrate=N/A speed=  19x    frame=15965 fps=455 q=-0.0 size=N/A time=00:11:05.87 bitrate=N/A speed=  19x    frame=16226 fps=456 q=-0.0 size=N/A time=00:11:16.75 bitrate=N/A speed=  19x    frame=16462 fps=456 q=-0.0 size=N/A time=00:11:26.60 bitrate=N/A speed=  19x    frame=16686 fps=456 q=-0.0 size=N/A time=00:11:35.94 bitrate=N/A speed=  19x    frame=16929 fps=456 q=-0.0 size=N/A time=00:11:46.08 bitrate=N/A speed=  19x    frame=17142 fps=455 q=-0.0 size=N/A time=00:11:54.96 bitrate=N/A speed=  19x    frame=17375 fps=455 q=-0.0 size=N/A time=00:12:04.68 bitrate=N/A speed=  19x    frame=17611 fps=455 q=-0.0 size=N/A time=00:12:14.52 bitrate=N/A speed=  19x    frame=17857 fps=456 q=-0.0 size=N/A time=00:12:24.78 bitrate=N/A speed=  19x    frame=18069 fps=455 q=-0.0 size=N/A time=00:12:33.62 bitrate=N/A speed=  19x    frame=18265 fps=454 q=-0.0 size=N/A time=00:12:41.80 bitrate=N/A speed=18.9x    frame=18469 fps=453 q=-0.0 size=N/A time=00:12:50.31 bitrate=N/A speed=18.9x    frame=18701 fps=453 q=-0.0 size=N/A time=00:12:59.98 bitrate=N/A speed=18.9x    frame=18937 fps=453 q=-0.0 size=N/A time=00:13:09.83 bitrate=N/A speed=18.9x    frame=19191 fps=454 q=-0.0 size=N/A time=00:13:20.42 bitrate=N/A speed=18.9x    frame=19393 fps=453 q=-0.0 size=N/A time=00:13:28.84 bitrate=N/A speed=18.9x    frame=19628 fps=453 q=-0.0 size=N/A time=00:13:38.65 bitrate=N/A speed=18.9x    frame=19823 fps=452 q=-0.0 size=N/A time=00:13:46.78 bitrate=N/A speed=18.9x    frame=20061 fps=452 q=-0.0 size=N/A time=00:13:56.71 bitrate=N/A speed=18.9x    frame=20277 fps=452 q=-0.0 size=N/A time=00:14:05.71 bitrate=N/A speed=18.9x    frame=20527 fps=452 q=-0.0 size=N/A time=00:14:16.14 bitrate=N/A speed=18.9x    frame=20790 fps=453 q=-0.0 size=N/A time=00:14:27.11 bitrate=N/A speed=18.9x    frame=21043 fps=453 q=-0.0 size=N/A time=00:14:37.66 bitrate=N/A speed=18.9x    frame=21264 fps=453 q=-0.0 size=N/A time=00:14:46.88 bitrate=N/A speed=18.9x    frame=21514 fps=454 q=-0.0 size=N/A time=00:14:57.31 bitrate=N/A speed=18.9x    frame=21734 fps=453 q=-0.0 size=N/A time=00:15:06.48 bitrate=N/A speed=18.9x    frame=21965 fps=453 q=-0.0 size=N/A time=00:15:16.12 bitrate=N/A speed=18.9x    frame=22212 fps=454 q=-0.0 size=N/A time=00:15:26.42 bitrate=N/A speed=18.9x    frame=22454 fps=454 q=-0.0 size=N/A time=00:15:36.51 bitrate=N/A speed=18.9x    frame=22678 fps=453 q=-0.0 size=N/A time=00:15:45.86 bitrate=N/A speed=18.9x    frame=22928 fps=454 q=-0.0 size=N/A time=00:15:56.28 bitrate=N/A speed=18.9x    frame=23165 fps=454 q=-0.0 size=N/A time=00:16:06.17 bitrate=N/A speed=18.9x    frame=23440 fps=455 q=-0.0 size=N/A time=00:16:17.64 bitrate=N/A speed=  19x    frame=23691 fps=455 q=-0.0 size=N/A time=00:16:28.11 bitrate=N/A speed=  19x    frame=23955 fps=456 q=-0.0 size=N/A time=00:16:39.12 bitrate=N/A speed=  19x    frame=24202 fps=456 q=-0.0 size=N/A time=00:16:49.42 bitrate=N/A speed=  19x    frame=24465 fps=456 q=-0.0 size=N/A time=00:17:00.39 bitrate=N/A speed=  19x    frame=24725 fps=457 q=-0.0 size=N/A time=00:17:11.23 bitrate=N/A speed=  19x    frame=24985 fps=457 q=-0.0 size=N/A time=00:17:22.08 bitrate=N/A speed=19.1x    frame=25187 fps=456 q=-0.0 size=N/A time=00:17:30.50 bitrate=N/A speed=  19x    frame=25412 fps=456 q=-0.0 size=N/A time=00:17:39.89 bitrate=N/A speed=  19x    frame=25677 fps=457 q=-0.0 size=N/A time=00:17:50.94 bitrate=N/A speed=19.1x    frame=25912 fps=457 q=-0.0 size=N/A time=00:18:00.74 bitrate=N/A speed=19.1x    frame=26157 fps=457 q=-0.0 size=N/A time=00:18:10.96 bitrate=N/A speed=19.1x    frame=26394 fps=457 q=-0.0 size=N/A time=00:18:20.84 bitrate=N/A speed=19.1x    frame=26664 fps=458 q=-0.0 size=N/A time=00:18:32.11 bitrate=N/A speed=19.1x    frame=26922 fps=458 q=-0.0 size=N/A time=00:18:42.87 bitrate=N/A speed=19.1x    frame=27179 fps=458 q=-0.0 size=N/A time=00:18:53.59 bitrate=N/A speed=19.1x    frame=27425 fps=459 q=-0.0 size=N/A time=00:19:03.85 bitrate=N/A speed=19.1x    frame=27687 fps=459 q=-0.0 size=N/A time=00:19:14.77 bitrate=N/A speed=19.1x    frame=27951 fps=459 q=-0.0 size=N/A time=00:19:25.78 bitrate=N/A speed=19.2x    frame=28199 fps=460 q=-0.0 size=N/A time=00:19:36.13 bitrate=N/A speed=19.2x    frame=28449 fps=460 q=-0.0 size=N/A time=00:19:46.56 bitrate=N/A speed=19.2x    frame=28675 fps=460 q=-0.0 size=N/A time=00:19:55.98 bitrate=N/A speed=19.2x    frame=28930 fps=460 q=-0.0 size=N/A time=00:20:06.62 bitrate=N/A speed=19.2x    frame=29180 fps=460 q=-0.0 size=N/A time=00:20:17.04 bitrate=N/A speed=19.2x    frame=29434 fps=460 q=-0.0 size=N/A time=00:20:27.64 bitrate=N/A speed=19.2x    frame=29684 fps=461 q=-0.0 size=N/A time=00:20:38.07 bitrate=N/A speed=19.2x    frame=29953 fps=461 q=-0.0 size=N/A time=00:20:49.28 bitrate=N/A speed=19.2x    frame=30212 fps=461 q=-0.0 size=N/A time=00:21:00.09 bitrate=N/A speed=19.2x    frame=30468 fps=462 q=-0.0 size=N/A time=00:21:10.76 bitrate=N/A speed=19.3x    frame=30709 fps=462 q=-0.0 size=N/A time=00:21:20.82 bitrate=N/A speed=19.3x    frame=30933 fps=461 q=-0.0 size=N/A time=00:21:30.16 bitrate=N/A speed=19.2x    frame=31180 fps=462 q=-0.0 size=N/A time=00:21:40.46 bitrate=N/A speed=19.3x    frame=31437 fps=462 q=-0.0 size=N/A time=00:21:51.18 bitrate=N/A speed=19.3x    frame=31692 fps=462 q=-0.0 size=N/A time=00:22:01.82 bitrate=N/A speed=19.3x    frame=31907 fps=462 q=-0.0 size=N/A time=00:22:10.78 bitrate=N/A speed=19.3x    frame=32146 fps=462 q=-0.0 size=N/A time=00:22:20.75 bitrate=N/A speed=19.3x    frame=32392 fps=462 q=-0.0 size=N/A time=00:22:31.01 bitrate=N/A speed=19.3x    frame=32634 fps=462 q=-0.0 size=N/A time=00:22:41.10 bitrate=N/A speed=19.3x    frame=32853 fps=462 q=-0.0 size=N/A time=00:22:50.24 bitrate=N/A speed=19.3x    frame=33054 fps=461 q=-0.0 size=N/A time=00:22:58.62 bitrate=N/A speed=19.2x    frame=33219 fps=460 q=-0.0 size=N/A time=00:23:05.50 bitrate=N/A speed=19.2x    frame=33444 fps=460 q=-0.0 size=N/A time=00:23:14.89 bitrate=N/A speed=19.2x    frame=33657 fps=460 q=-0.0 size=N/A time=00:23:23.77 bitrate=N/A speed=19.2x    frame=33845 fps=459 q=-0.0 size=N/A time=00:23:31.61 bitrate=N/A speed=19.1x    frame=34034 fps=458 q=-0.0 size=N/A time=00:23:39.50 bitrate=N/A speed=19.1x    frame=34275 fps=458 q=-0.0 size=N/A time=00:23:49.55 bitrate=N/A speed=19.1x    [Parsed_ssim_10 @ 000001bfc40b4a00] SSIM Y:0.993890 (22.139531) U:0.994264 (22.413570) V:0.993789 (22.068367) All:0.993935 (22.171956)
[out#0/null @ 000001bfc3bbc040] video:14827KiB audio:269856KiB subtitle:0KiB other streams:0KiB global headers:0KiB muxing overhead: unknown
frame=34506 fps=459 q=-0.0 Lsize=N/A time=00:23:59.18 bitrate=N/A speed=19.1x    
